<svg width="613" height="650" viewBox="0 0 613 650" fill="none" xmlns="http://www.w3.org/2000/svg">
<g clip-path="url(#clip0_1721_47)">
<path d="M250.555 584.392C251.586 572.707 252.62 561.009 253.651 549.325C253.288 549.061 252.938 548.802 252.58 548.525C251.755 549.674 250.537 550.695 250.174 551.981C248.14 559.079 246.345 566.24 244.381 573.346C243.68 575.883 243.438 579.497 239.449 578.365C235.539 577.259 235.686 573.932 236.688 570.74C238.97 563.55 241.348 556.377 243.682 549.204C243.93 548.445 244.183 547.673 243.685 546.496C239.186 552.627 234.704 558.75 230.206 564.881C229.497 565.851 228.744 566.778 228.084 567.778C226.318 570.474 224.043 571.67 221.207 569.539C218.069 567.179 219.719 564.793 221.526 562.503C224.497 558.739 227.454 554.971 230.389 551.181C230.99 550.407 231.478 549.539 231.733 549.159C218.58 551.283 205.373 553.752 192.053 555.416C186.224 556.144 180.042 555.959 174.273 554.867C167.641 553.622 164.498 548.755 164.911 542.054C165.119 538.675 165.758 535.176 166.986 532.044C177.152 506.172 187.418 480.347 197.85 454.592C200.707 447.546 203.752 447.138 209.217 452.39C223.402 466.043 234.463 481.673 239.454 500.847C239.964 500.927 240.165 501.022 240.299 500.964C242.158 500.11 244.007 499.238 246.352 498.138C244.699 492.657 243.038 487.16 241.38 481.649C233.022 453.869 226.065 425.751 221.92 397.004C221.499 394.129 220.631 392.845 217.474 391.956C206.506 388.872 197.71 381.893 189.218 374.651C159.977 349.695 133.577 322.164 113.322 289.271C100.869 269.044 92.8521 247.3 94.5596 223.019C96.9962 188.504 117.676 164.67 151.471 156.963C152.441 156.745 153.384 156.431 154.07 156.236C152.52 147.037 150.335 138.182 149.647 129.223C146.649 90.2055 167.011 58.8512 201.609 49.9738C234.595 41.5099 262.108 51.7931 284.29 76.9005C289.681 82.9964 293.763 90.2572 298.4 96.9318C304.369 92.2814 310.079 87.097 316.482 82.9798C335.305 70.8783 355.291 66.9498 376.69 75.9553C377.48 76.2863 378.304 76.5561 379.076 76.9394C383.48 79.1055 402.04 83.6904 406.907 83.7777C442.81 84.4526 474.133 110.395 482.567 146.745C484.193 153.723 484.923 160.915 486.126 168.478C488.346 167.757 490.688 166.974 493.052 166.256C510.745 160.882 528.462 159.412 545.872 167.067C568.12 176.843 579.312 194.905 581.809 218.333C584.825 246.811 572.889 269.684 552.911 288.896C547.987 293.628 542.122 297.342 536.882 301.753C535.708 302.73 534.557 304.787 534.729 306.161C538.425 335.529 528.433 360.472 509.994 382.549C488.929 407.778 461.77 424.769 431.993 437.499C416.432 444.151 400.069 449.004 383.881 454.075C376.024 456.528 367.789 457.525 359.623 454.33C358.533 453.901 356.655 454.503 355.532 455.236C329.083 472.488 302.697 489.819 275.963 507.369C277.316 509.739 279.24 513.063 281.42 516.847C285.182 514.646 288.952 512.375 292.78 510.196C305.365 502.99 318.392 496.913 333 495.077C340.447 494.141 342.377 496.033 340.522 503.247C335.456 523.01 330.49 542.821 324.787 562.405C322.265 571.081 318.187 579.334 314.562 587.663C312.063 593.392 308.115 594.214 303.872 589.479C293.493 577.868 283.47 565.925 273.321 554.1C272.441 553.073 271.721 551.91 270.041 549.607C270.29 552.166 270.301 553.371 270.525 554.545C272.095 562.446 273.712 570.334 275.326 578.235C275.925 581.183 275.182 583.895 271.952 583.807C270.345 583.759 267.791 581.475 267.425 579.805C265.151 569.631 263.39 559.35 261.459 549.1C260.975 548.942 260.469 548.805 259.981 548.66C259.548 549.981 258.772 551.291 258.74 552.628C258.49 561.352 258.585 570.088 258.139 578.792C258.008 581.226 256.41 583.585 255.478 585.989L250.586 584.387L250.555 584.392ZM348.457 266.406C354.81 246.383 354.791 224.81 342.738 204.38C325.786 175.64 293.116 168.81 266.328 188.559C259.932 193.273 254.415 199.331 249.005 205.236C244.045 210.652 241.457 211.079 236.64 205.664C235.624 204.52 234.821 203.17 233.87 201.961C217.855 181.552 197.285 168.951 171.204 166.944C136.762 164.285 109.574 186.495 104.942 220.595C102.253 240.442 107.835 258.738 117.081 275.931C138.044 314.892 169.214 344.753 203.425 371.916C216.395 382.203 229.291 382.63 243.431 374.746C266.924 361.653 288.979 346.67 308.061 327.585C325.16 310.486 339.895 291.76 348.44 266.415L348.457 266.406ZM362.221 222.955C362.509 225.569 362.728 227.423 362.933 229.272C364.884 247.248 361.967 264.471 354.79 280.994C344.354 304.995 328.104 324.718 309.159 342.414C305.551 345.781 299.555 348.786 298.966 352.619C298.31 356.837 302.455 361.916 304.808 366.453C316.898 389.69 331.643 411.145 348.196 431.412C357.038 442.23 368.106 445.94 381.617 442.499C383.608 441.992 385.63 441.568 387.607 441.013C409.474 434.79 430.683 426.902 450.521 415.683C473.405 402.724 494.454 387.542 509.309 365.263C522.787 345.023 528.416 323.098 521.107 299.282C511.313 267.397 481.951 253.336 451.049 265.654C443.817 268.544 436.743 272.63 430.719 277.538C424.222 282.826 419.956 281.965 416.528 273.413C410.916 259.408 402.087 247.755 390.583 238.122C382.376 231.249 373.414 225.664 362.221 222.955ZM531.515 292.797C537.525 287.581 543.743 282.968 548.989 277.43C563.481 262.143 571.887 244.125 570.662 222.649C569.092 195.107 550.884 175.69 524.549 173.223C512.014 172.045 500.01 174.777 488.382 179.371C483.122 181.458 480.695 180.199 479.216 174.805C478.67 172.845 478.481 170.77 478.235 168.734C475.705 147.309 466.914 128.86 451.377 113.938C422.018 85.7126 378.511 89.1961 355.842 121.403C344.791 137.106 341.043 155.056 339.837 173.824C339.487 179.228 340.063 183.661 344.515 187.537C347.55 190.168 350.307 193.692 351.855 197.371C355.523 206.075 361.327 210.466 370.62 213.625C394.871 221.884 410.789 239.668 420.4 263.223C421.202 265.195 422.053 267.154 422.944 269.256C468.035 234.701 514.063 248.512 531.515 292.797ZM240.322 198.135C264.928 170.01 292.792 155.466 329.959 174.443C332.104 138.341 343.712 107.799 377.25 89.5511C370.235 84.9221 362.911 82.8717 355.039 82.6699C335.387 82.1303 320.035 91.3709 306.991 104.8C301.904 110.029 297.856 111.6 292.696 103.074C291.716 101.464 290.832 99.7841 289.762 98.2315C274.916 76.5108 255.047 62.3867 228.589 58.9235C204.003 55.7114 178.297 68.4851 167.838 88.3078C156.297 110.152 157.578 132.428 164.957 155.281C180.647 154.871 194.99 159.017 208.351 166.563C221.737 174.118 231.592 185.427 240.318 198.148L240.322 198.135ZM265.938 488.705C266.396 488.811 266.858 488.904 267.329 489.015C284.831 464.358 302.356 439.722 319.775 415.009C320.367 414.174 320.327 412.307 319.791 411.378C309.721 394.046 299.522 376.802 289.379 359.561C281.684 364.748 273.383 370.503 264.885 375.976C262.408 377.57 261.594 379.302 261.701 382.162C262.403 400.453 262.854 418.764 263.569 437.06C264.244 454.286 265.141 471.497 265.938 488.705ZM232.718 535.62C232.42 527.816 230.219 519.941 232.392 513.569C234.783 506.531 232.634 501.902 229.841 496.541C228.342 493.645 227.085 490.583 225.255 487.898C219.117 478.907 212.759 470.061 206.074 460.573C204.496 462.692 203.734 463.427 203.317 464.305C192.17 488.306 182.324 512.804 174.972 538.265C173.083 544.787 174.7 546.707 181.633 546.5C199.83 545.955 217.071 540.94 232.701 535.629L232.718 535.62ZM306.23 577.896C312.485 569.631 330.437 519.759 330.671 506.481C314.723 510.153 299.097 514.393 284.276 521.172C283.252 521.647 282.656 523.466 282.228 524.774C280.81 529.104 279.475 533.447 278.271 537.832C277.925 539.109 277.496 540.997 278.122 541.825C287.253 553.751 296.558 565.546 306.23 577.896ZM324.493 419.667C306.881 445.984 289.093 472.575 271.287 499.176C271.467 499.423 271.647 499.67 271.827 499.917C298.48 483.543 325.12 467.164 351.027 451.255C341.783 440.248 333.118 429.951 324.479 419.663L324.493 419.667ZM256.728 497.856C257.123 497.623 257.505 497.386 257.9 497.153C256.683 459.11 255.462 421.08 254.245 383.211C245.359 386.863 236.433 390.545 227.047 394.395C227.253 393.898 227.11 394.069 227.137 394.208C233.475 428.467 242.103 462.1 254.244 494.783C254.672 495.952 255.891 496.829 256.746 497.847L256.728 497.856ZM239.324 515.578C236.168 525.394 241.447 535.769 251.302 539.112C259.884 542.009 269.414 537.366 272.077 528.968C274.839 520.269 268.585 509.951 258.586 506.691C249.298 503.65 242.094 506.984 239.319 515.591L239.324 515.578Z" fill="#3E2412"/>
<path d="M348.458 266.406C339.913 291.751 325.191 310.482 308.079 327.576C289.001 346.648 266.955 361.648 243.449 374.737C229.296 382.617 216.395 382.203 203.443 371.907C169.231 344.744 138.061 314.883 117.099 275.922C107.84 258.725 102.257 240.429 104.959 220.587C109.592 186.487 136.78 164.276 171.222 166.935C197.303 168.942 217.886 181.548 233.887 201.952C234.838 203.161 235.629 204.507 236.658 205.655C241.475 211.07 244.063 210.643 249.023 205.228C254.432 199.322 259.933 193.273 266.346 188.55C293.133 168.802 325.8 175.645 342.755 204.371C354.809 224.801 354.832 246.361 348.475 266.397L348.458 266.406Z" fill="#F8D816"/>
<path d="M362.225 222.942C373.418 225.651 382.38 231.236 390.587 238.109C402.091 247.742 410.92 259.395 416.532 273.4C419.96 281.952 424.226 282.813 430.723 277.525C436.761 272.621 443.821 268.531 451.054 265.641C481.955 253.323 511.317 267.384 521.111 299.269C528.425 323.072 522.792 345.01 509.314 365.25C494.458 387.529 473.41 402.711 450.525 415.67C430.683 426.902 409.478 434.777 387.612 441C385.63 441.568 383.625 441.984 381.621 442.486C368.115 445.914 357.043 442.217 348.201 431.399C331.647 411.132 316.889 389.672 304.812 366.44C302.446 361.899 298.314 356.824 298.971 352.606C299.56 348.773 305.555 345.768 309.163 342.401C328.109 324.705 344.367 305 354.795 280.981C361.968 264.471 364.888 247.235 362.938 229.259C362.732 227.41 362.526 225.561 362.225 222.942Z" fill="#F8D816"/>
<path d="M531.52 292.784C514.064 248.511 468.04 234.688 422.948 269.243C422.071 267.145 421.22 265.186 420.405 263.21C410.794 239.655 394.876 221.871 370.625 213.612C361.345 210.457 355.528 206.061 351.86 197.357C350.312 193.679 347.551 190.167 344.52 187.524C340.064 183.66 339.492 179.215 339.842 173.811C341.048 155.043 344.796 137.093 355.847 121.389C378.529 89.1869 422.036 85.7034 451.395 113.928C466.927 128.864 475.719 147.313 478.253 168.724C478.499 170.76 478.688 172.836 479.234 174.796C480.717 180.177 483.131 181.431 488.4 179.361C500.046 174.759 512.032 172.036 524.567 173.214C550.898 175.694 569.106 195.111 570.68 222.64C571.905 244.116 563.495 262.147 549.007 277.42C543.761 282.959 537.534 287.554 531.533 292.788L531.52 292.784Z" fill="#F8D816"/>
<path d="M240.327 198.122C231.601 185.401 221.746 174.092 208.36 166.537C194.999 158.99 180.643 154.84 164.966 155.255C157.587 132.402 156.306 110.125 167.847 88.2815C178.319 68.463 204.025 55.6893 228.598 58.8971C255.061 62.3473 274.929 76.4713 289.771 98.2051C290.841 99.7578 291.725 101.438 292.705 103.047C297.865 111.574 301.909 110.015 307 104.773C320.04 91.3576 335.392 82.1171 355.048 82.6435C362.928 82.8627 370.244 84.8957 377.259 89.5247C343.721 107.773 332.1 138.31 329.968 174.416C292.788 155.435 264.937 169.983 240.331 198.109L240.327 198.122Z" fill="#F8D816"/>
<path d="M232.709 535.602C217.067 540.909 199.838 545.929 181.641 546.474C174.695 546.676 173.087 544.774 174.981 538.239C182.328 512.791 192.179 488.279 203.325 464.278C203.734 463.384 204.492 462.661 206.083 460.546C212.776 470.052 219.122 478.894 225.264 487.872C227.098 490.544 228.35 493.619 229.85 496.514C232.63 501.871 234.788 506.517 232.4 513.543C230.223 519.927 232.428 527.79 232.727 535.593L232.709 535.602Z" fill="#F8D816"/>
<path d="M306.235 577.882C296.563 565.532 287.258 553.737 278.127 541.81C277.5 540.982 277.917 539.091 278.276 537.818C279.48 533.432 280.806 529.072 282.233 524.759C282.661 523.451 283.256 521.633 284.281 521.157C299.102 514.379 314.724 510.152 330.676 506.467C330.442 519.745 312.503 569.621 306.235 577.882Z" fill="#F8D816"/>
<path d="M239.328 515.565C242.103 506.957 249.303 503.637 258.595 506.665C268.594 509.924 274.848 520.242 272.086 528.941C269.424 537.339 259.907 541.987 251.311 539.086C241.451 535.756 236.173 525.38 239.333 515.552L239.328 515.565Z" fill="#F8D816"/>
</g>
<defs>
<clipPath id="clip0_1721_47">
<rect width="471.086" height="527.785" fill="white" transform="translate(164.554 0.900391) rotate(18.1296)"/>
</clipPath>
</defs>
</svg>
