<svg width="210" height="186" viewBox="0 0 210 186" fill="none" xmlns="http://www.w3.org/2000/svg">
<path d="M209.402 5.93923C207.322 10.7506 203.786 14.4898 200.366 18.3251C184.855 35.7624 168.004 51.8501 150.956 67.7565C143.36 74.8403 136.431 82.6281 128.932 89.8239C118.343 99.9854 107.52 109.902 96.7668 119.887C93.9183 122.533 90.1311 122.688 87.6507 119.994C79.1961 110.803 70.2561 101.964 63.7858 91.1681C61.1934 86.8421 59.1344 82.1427 57.2941 77.4327C55.9659 74.0348 57.8542 72.2532 61.3801 73.3254C62.7883 73.7521 64.1645 74.7389 65.226 75.8058C73.958 84.5591 82.6153 93.3978 91.2993 102.204C91.534 102.444 91.7953 102.663 92.1261 102.973C96.292 99.0519 100.309 95.0247 104.592 91.2961C112.124 84.7458 119.821 78.3821 127.449 71.9438C127.657 71.7678 127.907 71.6398 128.094 71.4424C136.319 62.7745 144.545 54.1012 152.797 45.3905C143.312 38.2268 134.575 30.3696 123.768 25.3395C84.5943 7.1074 37.8085 24.5127 20.3232 63.9426C14.173 77.8061 12.9034 92.1549 15.8639 106.93C20.5313 130.23 33.2158 147.966 53.6883 159.856C67.4663 167.857 82.5193 171.057 98.4843 169.591C122.845 167.35 141.536 155.274 156.466 136.471C165.305 125.333 170.714 112.542 175.125 99.2173C175.595 97.8037 176.107 96.3955 176.784 95.078C177.115 94.4379 177.867 93.5791 178.406 93.5951C178.971 93.6111 179.745 94.4646 180.011 95.1207C181.692 99.3133 182.033 103.65 181.169 108.099C178.832 120.127 174.677 131.457 168.148 141.848C158.941 156.495 146.652 167.814 131.172 175.613C121.704 180.387 111.708 183.459 101.183 184.708C81.7138 187.017 63.3697 183.47 46.2898 173.799C30.9328 165.099 19.1711 152.889 11.0845 137.191C7.49463 130.219 5.40364 122.741 3.5847 115.134C1.09899 104.759 -0.095853 94.3046 1.01365 83.6629C3.46735 60.1874 13.3568 40.4831 31.0662 24.7687C43.1213 14.0738 57.0168 6.99539 72.8698 4.1843C99.2631 -0.504411 123.101 5.51783 144.139 22.1763C150.055 26.8597 154.909 32.5032 158.515 40.2751C158.904 39.5603 159.165 38.7228 159.71 38.1414C171.141 25.9102 183.478 14.6445 196.259 3.85358C197.923 2.44537 200.025 1.42655 202.079 0.637094C205.268 -0.584423 207.279 0.119683 209.402 2.68007V5.94456V5.93923Z" fill="#3E2412"/>
</svg>
