<svg width="376" height="241" viewBox="0 0 376 241" fill="none" xmlns="http://www.w3.org/2000/svg">
<g clip-path="url(#clip0_1720_553)">
<path d="M365.226 12.2881H10.1986V233.249H365.226V12.2881Z" fill="#FFF9E7"/>
<path d="M228.365 0.137695H236.306C238.045 4.00613 241.078 5.16496 245.117 4.65371C247.23 4.39809 249.394 4.4833 251.525 4.53442C280.188 5.23313 308.852 3.44376 337.533 5.50579C346.599 6.15337 355.887 4.15951 365.021 2.9666C369.946 2.31902 372.128 3.27335 373.27 7.95978C373.338 8.24949 373.627 8.47103 373.713 8.74369C374.343 11.1466 375.485 13.5494 375.451 15.9352C375.229 30.7785 374.616 45.6217 374.343 60.4649C374.019 78.8698 374.002 97.2917 373.679 115.697C373.44 129.415 372.861 143.117 372.503 156.835C372.23 167.605 372.077 178.376 371.855 189.163C371.821 190.475 371.702 191.804 371.668 193.117C371.531 201.143 371.344 209.187 371.293 217.213C371.293 219.633 372.077 222.121 371.702 224.439C371.293 226.842 371.446 228.785 372.844 230.744C374.275 232.738 373.508 234.596 371.787 235.755C370.338 236.743 368.515 237.578 366.794 237.68C360.318 238.089 353.808 238.26 347.315 238.345C339.374 238.447 331.432 238.243 323.491 238.396C308.137 238.703 292.782 239.129 277.428 239.623C268.515 239.896 259.602 240.56 250.672 240.714C244.163 240.833 237.653 240.219 231.143 240.254C217.919 240.305 204.66 241.037 191.453 240.628C178.484 240.219 165.482 240.935 152.513 239.197C144.486 238.123 136.255 238.652 128.126 238.413C115.533 238.038 102.922 237.595 90.3282 237.254C74.0535 236.794 57.7788 236.3 41.5211 235.993C31.3813 235.806 21.2416 235.942 11.1189 235.942C3.21161 235.942 0.348627 233.198 0.450876 225.547C0.60425 215.288 0.962123 205.029 1.06437 194.753C1.16662 183.079 0.962123 171.389 1.1155 159.715C1.32 144.275 1.74604 128.836 2.08687 113.379C2.17208 109.033 2.24024 104.688 2.37657 100.342C2.93895 83.471 3.68878 66.6169 4.08073 49.7457C4.3534 38.3108 4.11482 26.8589 4.18298 15.424C4.18298 13.2086 4.83056 10.9761 4.69423 8.77778C4.40452 3.69939 5.13731 3.83572 10.1646 2.7621C11.2382 2.52352 12.397 2.67689 13.5218 2.71097C27.3425 3.10293 41.1462 3.63122 54.9669 3.90388C68.4979 4.17655 82.046 4.38105 95.577 4.2788C112.755 4.14247 129.933 3.73347 147.111 3.29039C155.444 3.06885 163.76 2.37014 172.077 2.1486C185.301 1.80777 198.525 1.7396 211.732 1.48398C216.606 1.38173 221.48 1.07498 226.354 0.802317C227.019 0.768234 227.666 0.376277 228.331 0.154737M13.1469 14.0948C13.1469 16.3102 13.215 18.7301 13.1469 21.15C12.5674 40.6796 11.5961 60.1922 11.4427 79.7219C11.153 116.174 11.3404 152.643 11.3234 189.095C11.3234 190.526 11.5449 192.009 11.2382 193.372C9.17617 202.489 10.6077 211.521 11.9199 220.536C12.8571 226.995 12.9764 226.825 19.5204 227.012C38.6411 227.541 57.7447 228.427 76.8653 228.768C109.023 229.33 141.18 229.569 173.338 229.943C195.202 230.199 217.066 230.83 238.914 230.54C262.005 230.25 285.079 229.006 308.154 228.29C325.246 227.762 342.322 227.353 359.415 227.029C362.107 226.978 362.84 226.177 362.789 223.485C362.619 214.845 362.602 206.187 362.84 197.547C363.079 188.192 363.999 178.87 364.05 169.514C364.22 139.776 364.05 110.039 364.135 80.3013C364.169 69.2072 364.101 58.0961 364.902 47.0361C365.584 37.5269 365.226 28.1881 363.505 18.8664C363.232 17.4349 363.232 15.9012 360.966 15.8671C341.623 15.5262 322.298 15.0491 302.956 14.7082C286.46 14.4185 269.981 14.4015 253.484 14.0095C235.386 13.5835 217.288 12.561 199.173 12.3395C178.416 12.0838 157.694 12.544 136.937 13.8221C119.912 14.8616 102.751 13.6176 85.6588 13.6176C67.8503 13.6176 50.0248 13.9243 32.2164 14.0777C26.0303 14.1288 19.8272 14.0777 13.1639 14.0777" fill="#833B13"/>
<path d="M89.5615 167.35C90.584 167.35 90.2943 165.595 90.2943 164.862C90.584 160.312 90.8737 155.762 91.0271 151.194C91.3168 146.048 91.3168 140.918 91.4702 135.925C91.4702 133.573 91.7599 131.375 91.7599 129.313C91.9133 122.565 92.0496 115.799 92.0496 109.051C92.0496 102.881 91.4702 96.8658 91.6065 90.8331C91.7599 83.6415 91.7599 76.5863 91.3168 69.3948C91.3168 68.5086 91.1635 67.4861 91.4702 66.7533C91.7599 66.1739 93.6686 65.2878 94.1116 65.1344C94.8444 65.1344 95.7306 65.8672 96.0203 66.4636C96.4634 67.1964 96.4634 68.2189 96.4634 69.1051C96.4634 74.0983 96.6168 78.9381 96.4634 83.9312C96.4634 91.2762 96.0203 98.6211 96.31 105.813C97.0428 115.066 96.4634 124.166 96.0203 133.284V146.951C96.0203 148.706 95.1341 167.81 94.5547 179.262C94.7081 181.171 94.5547 182.926 93.8219 184.545C89.7149 184.698 88.3857 184.545 87.6529 181.307C85.7442 172.786 83.9889 164.265 82.0632 155.898C81.4838 152.66 80.308 149.575 79.5752 146.355C76.2009 130.932 73.1164 115.509 69.7422 100.087C68.856 95.6729 67.9869 91.4125 66.9474 87.3055C66.6577 86.4193 66.5043 85.5502 65.7715 84.664C65.9249 88.6347 65.7715 92.2987 66.2146 96.116C66.9474 102.575 66.811 108.897 66.5043 115.356C66.3509 122.411 66.2146 129.603 65.9078 136.658C65.3284 150.615 66.0612 163.686 66.0612 176.91C66.0612 177.796 66.3509 178.682 66.3509 179.552C66.3509 180.864 66.0612 182.346 65.0217 182.789C64.2889 183.386 63.4027 183.965 62.3802 183.386C61.6474 182.057 61.6474 181.324 61.6474 180.455C61.051 171.201 61.051 148.877 61.2043 137.425C61.2043 132.432 61.6474 127.592 62.0905 109.511C62.3802 99.3709 61.2043 89.3845 60.9146 79.3982L60.4716 67.3498C60.4716 66.4636 61.051 65.7308 62.0905 65.4411L64.732 64.998C65.175 65.8842 65.7545 66.3273 65.7545 67.0601C68.6856 77.1998 71.9235 87.4759 73.6788 97.9053C75.1444 106.136 76.9167 114.35 79.1151 122.428C78.672 120.52 88.522 160.908 88.948 163.26L89.5445 167.367L89.5615 167.35Z" fill="#833B13"/>
<path d="M138.028 167.06C129.95 165.441 122.605 168.389 114.817 167.946L113.931 171.61C113.334 174.405 112.908 177.336 112.465 180.131C112.022 181.886 111 182.482 109.381 182.193C107.762 181.75 107.029 180.88 107.319 178.955L108.648 172.053C109.381 168.236 109.977 164.265 110.71 160.448L112.619 148.842C113.948 139.589 115.414 130.335 116.726 121.235C117.902 112.271 119.367 103.461 120.39 94.65C121.276 87.7482 121.719 80.693 122.298 73.7912C122.452 70.86 123.628 68.6446 126.116 67.179C127.138 66.4462 128.91 66.8893 129.354 68.0652C129.95 69.6841 130.683 71.4394 130.683 73.2117C130.393 77.3188 131.126 81.2894 131.705 85.3965C132.591 91.5655 133.035 97.888 133.767 104.057C134.943 114.043 136.255 123.893 137.585 133.88L141.112 158.846C141.555 161.641 142.135 164.418 142.731 167.213C143.464 170.894 144.197 174.558 144.793 178.222C144.947 179.108 144.947 179.977 144.947 180.863C144.793 182.176 143.481 183.215 142.305 183.062C140.976 183.062 139.8 182.039 139.664 180.863C139.221 177.626 138.931 174.541 138.641 171.32C138.488 170.144 138.198 168.815 138.045 167.06M126.303 84.2206C125.57 90.543 125.127 95.5362 124.394 100.529C123.815 104.21 122.929 107.874 122.332 111.538C121.31 118.304 120.577 125.052 119.691 131.801C118.805 137.97 117.629 144.139 116.896 150.308C116.453 153.972 114.987 157.499 115.72 161.623C116.743 162.067 117.782 162.646 118.958 162.799C120.577 162.953 122.196 162.799 123.798 162.646C128.058 162.203 132.165 161.76 136.579 161.317V158.829C135.846 153.546 134.96 148.246 134.227 142.963C133.205 135.328 132.029 127.694 130.99 120.195C130.257 114.469 129.371 108.88 128.791 103.154C128.348 98.0072 128.058 92.8777 127.462 87.5778C127.462 86.845 127.019 86.1122 126.286 84.2036" fill="#833B13"/>
<path d="M159.619 84.6464C159.772 88.6171 159.619 92.281 160.062 96.0983C160.795 102.557 160.641 108.88 160.352 115.338C160.198 122.394 160.198 129.585 159.465 136.64C158.136 149.865 158.869 162.935 159.176 176.143C159.176 177.029 159.465 177.898 159.465 178.784C159.465 180.113 159.022 181.426 158.136 182.022C157.114 182.601 156.074 182.312 155.052 182.601C154.762 181.289 154.455 180.539 154.455 179.67C154.302 170.417 154.302 160.873 154.302 151.62C154.302 148.978 154.455 146.047 154.898 143.542C155.631 137.083 155.784 130.761 155.921 124.302C156.074 119.309 156.364 114.469 156.517 109.476C156.671 99.3363 155.188 89.3499 154.455 79.3635C154.165 75.3928 154.165 71.2858 154.012 67.3151C154.012 66.429 154.609 65.6962 155.631 65.4065L158.716 64.9634C159.159 65.8495 159.738 66.2756 159.738 67.0254C162.669 77.1651 165.907 87.4412 167.662 97.8707C169.128 106.102 170.9 114.316 173.099 122.394C174.854 129.006 176.03 135.907 177.495 142.656L177.649 143.099C179.421 149.711 181.023 156.46 182.199 163.225C182.352 164.691 182.932 165.867 183.375 167.332C184.397 166.599 184.108 165.577 184.108 164.827C184.397 160.277 184.687 155.727 184.84 151.16C185.13 146.013 185.13 140.884 185.283 135.89C185.283 133.539 185.573 131.34 185.573 129.278C185.726 122.513 185.863 115.764 185.863 108.999C185.863 102.83 185.266 96.8141 185.42 90.7814C185.573 83.5898 185.573 76.5346 185.13 69.3431C185.13 68.4569 184.977 67.4344 185.266 66.7016C185.556 66.1052 186.732 65.236 187.175 65.0827C187.908 65.0827 188.794 65.8155 189.084 66.3949C189.527 67.1277 189.527 68.1672 189.527 69.0363C189.527 74.0295 189.68 78.8863 189.527 83.8795C189.527 91.2245 189.084 98.5694 189.373 105.761C190.106 115.014 189.527 124.115 189.084 133.232V146.882C189.084 148.638 188.93 150.256 188.794 151.875L188.198 160.107C188.044 163.924 188.198 167.741 187.465 171.558C187.022 174.047 187.311 176.705 187.618 179.193C187.771 181.102 187.618 182.857 186.885 184.476C183.358 184.629 182.778 184.476 182.045 181.238C180.137 172.717 178.382 164.197 176.473 155.829C175.876 152.591 174.718 149.507 173.985 146.286C170.611 130.863 167.526 115.441 164.152 100.018C163.266 95.6041 162.397 91.3437 161.357 87.2367C161.067 86.3506 160.914 84.885 159.602 84.5953" fill="#833B13"/>
<mask id="mask0_1720_553" style="mask-type:luminance" maskUnits="userSpaceOnUse" x="180" y="155" width="97" height="33">
<path d="M276.405 155.369H180.12V187.935H276.405V155.369Z" fill="white"/>
</mask>
<g mask="url(#mask0_1720_553)">
<path d="M188.726 187.936H188.539C187.908 187.936 187.227 187.85 185.71 187.748C183.699 187.612 181.433 185.362 180.12 183.386C180.12 181.613 180.598 179.602 181.296 177.694C181.569 178.904 181.825 180.114 182.097 181.324C182.728 184.084 183.239 184.596 185.574 184.596C185.983 184.596 186.426 184.596 186.954 184.561C187.687 182.943 187.84 181.187 187.687 179.279C187.397 176.773 187.09 174.132 187.533 171.644C187.653 171.047 187.738 170.451 187.823 169.855C194.026 168.849 191.351 160.516 197.963 156.494C199.139 155.778 200.178 155.42 201.218 155.403H201.388C204.814 155.454 208.495 159.17 218.515 165.56C230.189 166.821 256.467 169.173 267.85 172.615C270.304 173.365 272.81 173.996 274.837 175.649C276.746 177.199 277.036 178.87 275.178 180.846C272.23 183.982 268.515 184.851 264.459 184.851H264.357C255.58 184.817 238.76 183.709 225.911 183.709C221.531 183.709 217.629 183.846 214.664 184.187C206.927 185.09 199.241 186.453 191.538 187.629C190.039 187.868 189.357 187.953 188.726 187.953" fill="#E6DFD1"/>
<path d="M185.574 184.562C183.239 184.562 182.728 184.051 182.097 181.29C181.824 180.08 181.552 178.87 181.296 177.66C182.659 173.894 184.824 170.469 185.727 169.872C186 169.889 186.255 169.906 186.494 169.906C186.971 169.906 187.414 169.872 187.806 169.804C187.721 170.401 187.636 170.997 187.516 171.594C187.073 174.082 187.363 176.74 187.67 179.228C187.823 181.137 187.67 182.909 186.937 184.511C186.426 184.528 185.966 184.545 185.557 184.545" fill="#773816"/>
</g>
<path fill-rule="evenodd" clip-rule="evenodd" d="M189.527 185.482L189.476 185.345C189.34 184.851 189.204 184.34 189.067 183.846C188.931 183.368 188.761 182.908 188.573 182.448C188.42 182.107 188.249 181.784 188.062 181.477C187.482 180.591 186.716 179.943 185.727 179.551L185.472 179.449V179.398L185.591 179.33C186.153 178.989 186.647 178.58 187.125 178.137C187.551 177.728 187.943 177.285 188.318 176.842C189.084 175.921 189.834 175.001 190.584 174.081C191.658 172.769 192.748 171.473 193.822 170.161C195.151 168.542 196.446 166.906 197.707 165.236C199.02 163.498 200.281 161.709 201.474 159.868C202.854 157.738 204.115 155.54 205.24 153.273C206.654 150.444 207.864 147.547 208.87 144.548C209.5 142.673 210.046 140.782 210.523 138.856C210.795 137.731 211.034 136.606 211.255 135.482C211.392 134.783 211.511 134.101 211.613 133.403C211.699 132.84 211.784 132.278 211.869 131.732C211.92 131.323 211.988 130.914 212.022 130.505C212.056 130.165 212.091 129.841 212.142 129.5C212.159 129.295 212.193 129.074 212.21 128.869C212.227 128.682 212.244 128.495 212.261 128.307C212.278 128.051 212.295 127.796 212.329 127.557C212.346 127.268 212.38 126.995 212.397 126.705C212.414 126.45 212.431 126.194 212.448 125.921C212.465 125.495 212.482 125.069 212.517 124.643C212.517 124.336 212.517 124.405 212.687 124.183C213.028 123.757 213.215 123.263 213.3 122.717C213.352 122.325 213.352 121.934 213.3 121.525C213.266 121.098 213.181 120.672 213.113 120.263C213.079 120.076 213.045 119.871 213.028 119.667V119.326C213.062 119.054 213.079 118.781 213.113 118.508C213.13 118.321 213.147 118.133 213.164 117.946L213.249 117.827C213.42 117.775 213.573 117.707 213.744 117.656L213.829 117.622L213.863 117.571L213.829 117.366C213.709 116.77 213.573 116.173 213.454 115.577L213.42 115.168C213.454 114.844 213.471 114.52 213.505 114.214C213.505 114.043 213.539 113.856 213.556 113.685C213.59 113.293 213.624 112.901 213.675 112.527C213.709 112.169 213.761 111.794 213.795 111.436C213.812 111.231 213.829 111.027 213.863 110.822C213.897 110.601 213.914 110.362 213.931 110.141C213.948 109.97 213.965 109.783 213.982 109.612C214.016 109.221 214.05 108.829 214.101 108.42C214.136 107.976 214.187 107.533 214.221 107.09C214.238 106.886 214.255 106.664 214.272 106.443C214.272 106.17 214.306 105.914 214.323 105.642C214.34 105.045 214.374 104.449 214.391 103.852C214.391 103.273 214.391 102.677 214.391 102.097C214.374 101.041 214.374 99.9669 214.374 98.9104C214.374 97.8367 214.408 96.7631 214.442 95.7065C214.442 95.059 214.476 94.4114 214.51 93.7638V93.6445C214.544 92.9628 214.562 92.2812 214.579 91.5995C214.596 90.9519 214.63 90.3044 214.647 89.6568V89.5375C214.715 87.4755 214.732 85.4134 214.698 83.3514C214.698 82.6697 214.664 81.9881 214.63 81.3064C214.613 80.8974 214.596 80.4884 214.562 80.0964C214.562 79.7897 214.51 79.4659 214.493 79.1592C214.493 78.9547 214.459 78.7672 214.442 78.5627C214.408 78.1878 214.374 77.8129 214.34 77.438C214.289 77.0119 214.238 76.5859 214.17 76.1598C214.101 75.7168 214.05 75.2737 213.965 74.8306C213.914 74.5409 213.863 74.2512 213.812 73.9444L213.778 73.7229L213.812 73.6377L213.931 73.5354C214.289 73.2628 214.681 73.0753 215.124 72.956C215.414 72.8708 215.72 72.8027 216.044 72.7686C216.436 72.7174 216.845 72.6834 217.254 72.6152C217.51 72.5811 217.782 72.547 218.038 72.4789L218.106 72.4277H218.191L218.362 72.6152C219.043 73.3309 219.674 74.0978 220.253 74.9158C221.123 76.1258 221.872 77.4209 222.503 78.7672C223.116 80.0624 223.645 81.4087 224.105 82.789C224.565 84.1694 224.974 85.5668 225.349 86.9812C225.741 88.4809 226.116 89.9806 226.474 91.4973C226.661 92.2982 226.849 93.0821 227.002 93.8831C227.121 94.4455 227.223 95.0078 227.343 95.5702C227.445 96.1155 227.547 96.6609 227.632 97.2232C227.718 97.7515 227.803 98.2798 227.888 98.8081C227.956 99.3023 228.024 99.8136 228.093 100.308C228.144 100.768 228.195 101.228 228.246 101.705C228.263 101.893 228.28 102.063 228.297 102.25C228.314 102.506 228.348 102.762 228.365 103.017C228.382 103.307 228.399 103.614 228.433 103.904C228.45 104.261 228.485 104.636 228.502 104.994C228.536 105.727 228.57 106.46 228.553 107.193C228.553 107.84 228.553 108.488 228.553 109.135C228.553 109.391 228.536 109.647 228.553 109.885C228.587 110.277 228.621 110.686 228.655 111.078C228.706 111.487 228.757 111.896 228.825 112.305C228.894 112.714 228.962 113.123 229.03 113.515C229.132 114.043 229.234 114.572 229.354 115.1C229.422 115.441 229.473 115.782 229.473 116.122V116.191L229.507 116.327V118.253L229.473 118.355V118.61C229.473 118.866 229.439 119.122 229.405 119.377C229.354 119.769 229.303 120.144 229.251 120.536C229.166 121.047 229.098 121.542 228.996 122.053C228.894 122.632 228.774 123.229 228.655 123.808V123.893V123.996L228.859 124.268C228.979 124.439 228.979 124.439 228.945 124.66L228.911 124.848C228.894 125.035 228.859 125.24 228.842 125.444C228.825 125.649 228.808 125.853 228.791 126.058C228.774 126.313 228.74 126.569 228.723 126.824C228.689 127.216 228.655 127.608 228.621 127.983C228.587 128.324 228.536 128.665 228.502 129.006C228.45 129.432 228.399 129.858 228.348 130.284C228.28 130.761 228.212 131.255 228.144 131.732C228.058 132.397 227.939 133.045 227.837 133.692C227.701 134.51 227.53 135.328 227.377 136.146C227.138 137.373 226.849 138.6 226.559 139.81C226.048 141.889 225.468 143.951 224.821 145.996C223.662 149.694 222.315 153.307 220.816 156.869L220.645 157.158C220.185 157.738 219.725 158.351 219.299 158.948C218.566 159.97 217.851 161.027 217.169 162.101C216.487 163.157 215.789 164.214 215.107 165.27C214.408 166.344 213.675 167.4 212.909 168.423C212.039 169.599 211.102 170.724 210.097 171.797C209.279 172.649 208.478 173.501 207.66 174.336C206.535 175.478 205.376 176.586 204.166 177.642C203.058 178.614 201.917 179.551 200.724 180.403C199.258 181.46 197.724 182.397 196.106 183.198C194.725 183.88 193.294 184.442 191.828 184.868C191.198 185.056 190.567 185.209 189.919 185.362L189.8 185.413H189.664L189.527 185.482Z" fill="#F8AC36"/>
<path fill-rule="evenodd" clip-rule="evenodd" d="M203.603 57.1588C203.876 53.7675 205.478 51.7226 209.108 51.6885C209.21 51.9271 209.892 52.1656 210.147 52.2168C211.085 53.0518 211.749 54.6196 212.09 55.7785C213.01 57.4997 213.061 57.1077 212.738 60.0559C212.942 60.9591 212.891 61.4192 213.095 62.3224C211.579 62.2883 209.994 61.4874 208.596 62.2543C206.841 63.2256 205.751 62.4247 204.609 61.334C203.876 60.2263 203.62 58.9823 203.637 57.6701C203.74 57.4997 203.74 57.3463 203.62 57.1759" fill="#422415"/>
<path fill-rule="evenodd" clip-rule="evenodd" d="M180.751 178.956C182.37 179.126 183.972 179.296 185.591 179.467C188.471 180.438 189.016 183.011 189.681 185.5C188.607 186.709 187.192 187.323 185.676 187.749L185.71 187.817C185.369 187.681 185.011 187.545 184.67 187.408C180.001 185.312 179.37 183.983 180.751 178.973" fill="#482614"/>
<path fill-rule="evenodd" clip-rule="evenodd" d="M213.811 73.996C212.414 74.6777 211.017 75.3764 209.619 76.058C208.972 73.4166 208.307 70.7581 207.659 68.1167C209.738 66.7704 212.09 66.4807 214.493 66.3784C215.737 68.5086 216.981 70.6388 218.208 72.769C216.726 73.1269 215.073 72.8713 213.794 73.979" fill="#F2921A"/>
<path fill-rule="evenodd" clip-rule="evenodd" d="M214.493 66.3782C212.09 66.4805 209.738 66.7702 207.659 68.1165C206.926 65.7136 205.018 63.8561 204.592 61.3169C205.734 62.4076 206.841 63.2085 208.58 62.2371C209.977 61.4703 211.562 62.2542 213.079 62.3053C213.556 63.6686 214.016 65.0149 214.493 66.3782Z" fill="#833B13"/>
<path fill-rule="evenodd" clip-rule="evenodd" d="M184.67 187.39C185.011 187.526 185.369 187.663 185.727 187.799C185.369 187.663 185.028 187.526 184.67 187.39Z" fill="#DF1F2B"/>
<path fill-rule="evenodd" clip-rule="evenodd" d="M185.301 179.483H185.267L185.232 179.449C185.045 179.432 184.858 179.415 184.67 179.398H184.517L184.432 179.364C184.244 179.347 184.057 179.33 183.869 179.313H183.699L183.511 179.278L183.256 179.244H183.205C183.017 179.227 182.813 179.21 182.608 179.176H182.455L182.267 179.142L182.012 179.108H181.841L181.603 179.074H181.415L181.211 179.04L180.87 179.006L180.768 178.972L180.734 178.938V178.818C180.87 178.273 181.006 177.711 181.143 177.165C181.552 175.58 182.08 174.03 182.659 172.496C183.119 171.286 183.648 170.076 184.176 168.883C184.67 167.809 185.181 166.753 185.693 165.696C186.323 164.435 186.954 163.191 187.601 161.947C188.3 160.601 188.999 159.255 189.68 157.891C190.839 155.591 191.964 153.29 193.038 150.955C193.873 149.149 194.674 147.343 195.44 145.519C196.292 143.508 197.093 141.463 197.86 139.418C198.559 137.527 199.207 135.618 199.803 133.692C200.212 132.38 200.587 131.051 200.945 129.722C201.183 128.852 201.388 127.983 201.609 127.114C201.763 126.484 201.899 125.87 202.035 125.24C202.138 124.762 202.24 124.285 202.325 123.808C202.41 123.399 202.479 122.99 202.564 122.581C202.632 122.257 202.683 121.934 202.734 121.627C202.768 121.371 202.819 121.133 202.853 120.877C202.905 120.57 202.956 120.246 203.007 119.94C203.041 119.701 203.075 119.462 203.109 119.224L203.177 118.781C203.194 118.627 203.211 118.474 203.228 118.321C203.245 118.167 203.262 117.997 203.297 117.844V117.758C203.331 117.537 203.365 117.315 203.382 117.111C203.399 116.923 203.416 116.753 203.45 116.565V116.412L203.484 116.225V115.986L203.518 115.952C203.535 115.747 203.552 115.543 203.569 115.338C203.586 115.083 203.62 114.861 203.637 114.623V114.589C203.654 114.35 203.671 114.094 203.706 113.856V113.566L203.74 113.396C203.74 113.225 203.757 113.038 203.774 112.867V112.697V112.544C203.723 112.271 203.689 111.981 203.654 111.709C203.62 111.47 203.586 111.231 203.552 110.993L203.501 110.686V110.43L203.518 110.226C203.535 110.056 203.552 109.868 203.569 109.698C203.586 109.527 203.62 109.34 203.637 109.169L203.689 108.794C203.706 108.624 203.723 108.454 203.74 108.283L203.791 107.908C203.825 107.67 203.876 107.431 203.91 107.193C203.944 106.971 203.978 106.767 204.012 106.545L204.063 106.255C204.115 105.914 204.166 105.591 204.234 105.25C204.268 105.028 204.302 104.824 204.336 104.602C204.37 104.398 204.404 104.193 204.438 103.972C204.472 103.767 204.507 103.563 204.541 103.341L204.592 103C204.626 102.762 204.677 102.506 204.711 102.268C204.745 102.063 204.779 101.859 204.813 101.637C204.847 101.433 204.881 101.228 204.916 101.006L204.967 100.666L205.086 99.9329C205.12 99.7284 205.154 99.5239 205.188 99.3023C205.222 99.0808 205.256 98.8763 205.29 98.6547C205.325 98.4332 205.359 98.2287 205.393 98.0072C205.427 97.8027 205.461 97.5982 205.495 97.3766L205.546 97.0358C205.58 96.7972 205.631 96.5416 205.665 96.303C205.699 96.0985 205.734 95.894 205.768 95.6725C205.802 95.468 205.836 95.2464 205.87 95.0419L205.921 94.7352C205.972 94.3943 206.04 94.0535 206.091 93.7127C206.143 93.4059 206.194 93.1162 206.245 92.8095C206.296 92.5027 206.33 92.213 206.381 91.9063C206.432 91.5654 206.5 91.2246 206.552 90.8838L206.722 89.8613C206.773 89.5204 206.841 89.1967 206.892 88.8558C206.926 88.6513 206.961 88.4468 206.995 88.2253C207.029 88.0208 207.063 87.7992 207.097 87.5947C207.131 87.3902 207.165 87.1857 207.199 86.9642C207.233 86.7597 207.267 86.5552 207.301 86.3337C207.335 86.1292 207.37 85.9247 207.404 85.7031L207.455 85.3964C207.506 85.0726 207.557 84.7488 207.625 84.408C207.659 84.2035 207.693 83.9819 207.727 83.7774C207.761 83.5729 207.796 83.3684 207.83 83.1469C207.864 82.9424 207.898 82.7379 207.932 82.5164C207.966 82.3119 208 82.1074 208.034 81.8858C208.068 81.6813 208.102 81.4768 208.136 81.2553C208.17 81.0508 208.205 80.8463 208.256 80.6247C208.29 80.4032 208.341 80.1817 208.392 79.9601C208.477 79.5852 208.579 79.2103 208.682 78.8354C208.818 78.3071 208.988 77.7958 209.142 77.2675C209.261 76.8585 209.397 76.4495 209.517 76.0235C209.585 75.819 209.534 75.8531 209.738 75.7679C211.033 75.1374 212.329 74.4898 213.607 73.8592L213.726 73.8081H213.777L213.811 74.0126C213.845 74.2001 213.879 74.3875 213.913 74.575C213.948 74.7795 213.982 74.984 214.016 75.2055L214.067 75.5123C214.101 75.7508 214.135 75.9894 214.169 76.228C214.186 76.3814 214.22 76.5348 214.237 76.6881C214.254 76.8415 214.271 77.0119 214.305 77.1653C214.322 77.3528 214.34 77.5232 214.374 77.7106V77.881L214.408 78.1196V78.1537C214.442 78.3582 214.459 78.5798 214.476 78.7843C214.51 79.0569 214.51 79.3125 214.544 79.5682V79.6022C214.561 79.892 214.578 80.1817 214.595 80.4714V80.8463L214.629 81.1701V81.5961V81.8347V81.9881L214.663 82.1074V89.0092L214.629 89.1455C214.629 89.2989 214.629 89.4523 214.629 89.6057C214.629 89.8613 214.629 90.1169 214.629 90.3725C214.629 90.5259 214.629 90.6793 214.629 90.8326V91.5654C214.595 91.7359 214.595 91.9063 214.595 92.0767C214.595 92.3153 214.578 92.5538 214.578 92.7924C214.578 92.9628 214.578 93.1333 214.561 93.3037C214.561 93.5423 214.544 93.7638 214.544 94.0024C214.544 94.1898 214.544 94.3773 214.527 94.5818C214.527 94.8374 214.51 95.1101 214.51 95.3657C214.51 95.5872 214.51 95.8088 214.493 96.0133C214.493 96.2689 214.493 96.5245 214.476 96.7802C214.476 97.1721 214.476 97.5641 214.459 97.939C214.459 98.2628 214.459 98.6036 214.459 98.9274C214.459 99.4898 214.459 100.052 214.459 100.615C214.459 100.938 214.459 101.245 214.459 101.569C214.476 102.251 214.476 102.932 214.476 103.614C214.476 103.784 214.476 103.972 214.476 104.142C214.476 104.381 214.476 104.602 214.459 104.841V105.216L214.425 105.659V105.983L214.391 106.323C214.374 106.596 214.357 106.852 214.34 107.124L214.305 107.55V107.704L214.271 107.959V108.232L214.237 108.42V108.692L214.203 108.846C214.186 109.05 214.169 109.272 214.152 109.476V109.527L214.118 109.783V109.936L214.067 110.226V110.379L214.033 110.618V110.771L213.982 111.061V111.214L213.948 111.419V111.657L213.913 111.845V112.015L213.862 112.288V112.458L213.828 112.663V112.901L213.794 113.089V113.259L213.743 113.6V113.771L213.709 113.958L213.675 114.248V114.418C213.641 114.657 213.607 114.895 213.607 115.134V115.168V115.509V115.611C213.675 115.833 213.726 116.071 213.777 116.293C213.862 116.668 213.948 117.06 214.016 117.435V117.554L214.033 117.605V117.639L213.879 117.69L213.419 117.861L213.351 117.929L213.317 118.27V118.44L213.266 118.73V118.883L213.232 119.122V119.326L213.198 119.48V119.667L213.249 119.974C213.283 120.178 213.317 120.383 213.351 120.57L213.419 120.945L213.47 121.337V121.542L213.522 121.814V122.053C213.539 122.223 213.522 122.411 213.504 122.581C213.504 122.786 213.453 122.973 213.385 123.161C213.283 123.518 213.113 123.859 212.874 124.149L212.738 124.319L212.704 124.405V124.609L212.669 124.984V125.325L212.635 125.734C212.618 126.041 212.601 126.347 212.584 126.637V126.688C212.55 126.961 212.533 127.251 212.516 127.54C212.499 127.779 212.482 128 212.465 128.239L212.431 128.614V128.733L212.397 128.972V129.142L212.346 129.415V129.568L212.312 129.756C212.295 129.926 212.277 130.113 212.26 130.284L212.226 130.54C212.209 130.693 212.192 130.846 212.175 131C212.158 131.153 212.124 131.323 212.107 131.477L212.039 131.92L211.988 132.227L211.92 132.636L211.868 133.028C211.834 133.249 211.8 133.454 211.766 133.675C211.732 133.88 211.698 134.084 211.664 134.306C211.596 134.647 211.545 135.004 211.477 135.345C211.391 135.771 211.306 136.197 211.221 136.606C211.102 137.186 210.982 137.748 210.846 138.328C210.659 139.163 210.437 139.998 210.215 140.833C209.858 142.128 209.466 143.423 209.023 144.701C208.222 147.07 207.284 149.37 206.228 151.637C204.916 154.415 203.433 157.107 201.78 159.698C200.809 161.231 199.769 162.714 198.695 164.18C197.605 165.679 196.463 167.128 195.304 168.576C194.247 169.889 193.174 171.201 192.1 172.496C190.958 173.859 189.834 175.24 188.709 176.62C188.487 176.893 188.266 177.148 188.027 177.404C187.755 177.711 187.465 178.017 187.158 178.29C186.749 178.665 186.289 179.023 185.812 179.313L185.727 179.381H185.386L185.301 179.483Z" fill="#FFD802"/>
<path d="M235.062 157.654C234.909 154.859 234.772 152.217 234.772 149.423C234.772 141.924 234.772 134.579 234.926 127.388C235.079 121.372 234.926 115.493 235.369 109.613C235.659 104.024 235.522 98.6046 235.659 93.0149C235.812 89.9304 235.505 86.5562 235.505 83.0286C235.659 81.1199 236.102 79.2112 236.238 77.1492C236.528 72.156 239.323 69.2249 242.697 66.7198C246.071 64.368 250.042 63.4819 254.302 64.368C255.921 64.8111 257.387 65.6973 258.699 67.2992C260.471 69.8043 262.516 72.139 262.959 75.6666C263.402 78.9045 263.402 81.8357 263.402 85.0736C263.556 86.6925 262.67 87.4253 261.34 87.5787C260.011 87.732 258.852 86.8459 258.699 85.3803C258.545 83.3183 258.545 81.563 258.545 79.7907C258.392 76.1267 257.08 73.3319 254.438 70.9802C251.644 69.0715 249.002 68.9181 246.071 70.8268C245.185 71.4232 244.452 72.156 243.43 73.0252C242.254 74.0476 241.521 75.3769 241.231 77.1322C240.498 81.1029 240.055 85.3633 240.345 89.6237C240.788 94.1738 240.192 99.1669 240.055 103.87C239.902 109.307 239.766 114.59 239.459 119.872C238.436 129.705 239.459 139.555 239.459 149.252C239.459 153.513 239.169 157.62 239.169 161.88C239.169 164.078 239.323 165.987 239.612 167.759C240.055 173.775 243.276 177.166 247.843 178.768C249.462 179.211 251.218 179.654 252.99 179.365C256.074 178.768 257.54 176.877 258.426 173.792C258.869 171.73 259.023 169.532 259.159 167.044C259.602 163.806 259.755 160.278 260.045 156.614C260.335 154.705 261.511 153.683 262.84 153.973C264.595 154.126 266.214 156.035 265.481 157.79C263.726 161.897 264.459 166.447 263.419 170.707C262.976 172.326 262.976 173.945 262.533 175.547C261.221 180.984 257.54 183.915 252.7 184.511C247.264 185.091 242.867 182.603 238.897 178.496C236.391 176.007 235.079 172.616 235.079 168.799C235.233 165.135 234.926 161.301 234.789 157.637H235.079L235.062 157.654Z" fill="#833B13"/>
<path d="M305.12 167.06C297.042 165.441 289.697 168.389 281.909 167.946L281.023 171.61C280.427 174.405 280.001 177.336 279.558 180.131C279.115 181.886 278.092 182.482 276.473 182.193C274.854 181.75 274.121 180.88 274.411 178.955L275.723 172.053C276.456 168.236 277.053 164.265 277.785 160.448L279.694 148.842C281.023 139.589 282.489 130.335 283.801 121.235C284.977 112.271 286.442 103.461 287.465 94.65C288.351 87.7482 288.794 80.693 289.374 73.7912C289.527 70.86 290.703 68.6446 293.191 67.179C294.213 66.4462 295.986 66.8893 296.429 68.0652C297.025 69.6841 297.758 71.4394 297.758 73.2117C297.468 77.3188 298.201 81.2894 298.781 85.3965C299.667 91.5655 300.11 97.888 300.843 104.057C302.018 114.043 303.331 123.893 304.66 133.88L308.188 158.846C308.631 161.641 309.21 164.418 309.806 167.213C310.539 170.894 311.272 174.558 311.868 178.222C312.022 179.108 312.022 179.977 312.022 180.863C311.868 182.176 310.556 183.215 309.38 183.062C308.051 183.062 306.875 182.039 306.739 180.863C306.296 177.626 306.006 174.541 305.716 171.32C305.563 170.144 305.273 168.815 305.12 167.06ZM293.378 84.2206C292.646 90.543 292.202 95.5362 291.47 100.529C290.89 104.21 290.004 107.874 289.408 111.538C288.385 118.304 287.652 125.052 286.766 131.801C285.88 137.97 284.704 144.139 283.971 150.308C283.528 153.972 282.063 157.499 282.796 161.623C283.818 162.067 284.858 162.646 286.033 162.799C287.652 162.953 289.271 162.799 290.89 162.646C295.151 162.203 299.258 161.76 303.671 161.317V158.829C302.939 153.546 302.053 148.246 301.32 142.963C300.297 135.328 299.121 127.694 298.082 120.195C297.349 114.469 296.463 108.88 295.883 103.154C295.44 98.0072 295.151 92.8777 294.554 87.5778C294.554 86.845 294.111 86.1122 293.378 84.2036" fill="#833B13"/>
<path d="M313.607 84.17C308.818 84.17 304.933 80.3186 304.899 75.5129C304.864 70.7072 308.75 66.7876 313.573 66.7706C318.378 66.7535 322.298 70.6731 322.281 75.4788C322.281 80.2845 318.395 84.153 313.59 84.17M313.59 82.7556C317.612 82.7556 320.866 79.5006 320.866 75.4959C320.866 71.457 317.612 68.185 313.573 68.185C309.551 68.185 306.296 71.44 306.296 75.4447C306.296 79.4836 309.551 82.7556 313.59 82.7556Z" fill="#833B13"/>
<path d="M310.079 79.6702V71.0301L310.164 70.979C311.834 70.996 313.504 70.979 315.157 71.0642C316.367 71.1324 317.1 71.9845 317.202 73.1774C317.305 74.3873 316.691 75.3587 315.583 75.7336C315.43 75.7847 315.277 75.8188 315.072 75.887C316.436 76.8413 316.981 78.358 317.952 79.7043C317.202 79.7043 316.555 79.7043 315.907 79.7043L315.6 79.4316C315.089 78.6988 314.561 77.9661 314.101 77.1821C313.59 76.3301 312.857 75.9722 311.834 76.1085V79.6873H310.079V79.6702ZM311.834 74.5748C312.755 74.5748 313.624 74.6089 314.476 74.5748C314.987 74.5407 315.311 74.1317 315.328 73.6034C315.345 73.0751 315.089 72.598 314.629 72.5639C313.709 72.4957 312.772 72.5468 311.834 72.5468V74.5918V74.5748Z" fill="#833B13"/>
</g>
<defs>
<clipPath id="clip0_1720_553">
<rect width="375" height="240.61" fill="white" transform="translate(0.467896 0.137695)"/>
</clipPath>
</defs>
</svg>
