<svg width="397" height="207" viewBox="0 0 397 207" fill="none" xmlns="http://www.w3.org/2000/svg">
<path d="M44.0978 175.613C45.6478 175.613 45.2086 172.952 45.2086 171.841C45.6478 164.943 46.087 158.046 46.3195 151.122C46.7587 143.321 46.7587 135.545 46.9912 127.976C46.9912 124.411 47.4303 121.078 47.4303 117.952C47.6628 107.722 47.8695 97.4662 47.8695 87.2362C47.8695 77.8844 46.9912 68.7652 47.1978 59.6201C47.4303 48.7184 47.4303 38.0233 46.7587 27.1216C46.7587 25.7782 46.5262 24.2282 46.9912 23.1174C47.4303 22.2391 50.3237 20.8957 50.9953 20.6632C52.1062 20.6632 53.4495 21.774 53.8887 22.6782C54.5604 23.7891 54.5604 25.3391 54.5604 26.6824C54.5604 34.2516 54.7929 41.5883 54.5604 49.1576C54.5604 60.2918 53.8887 71.426 54.3279 82.3278C55.4387 96.3554 54.5604 110.15 53.8887 123.971V144.69C53.8887 147.351 52.5454 176.31 51.667 193.67C51.8995 196.564 51.667 199.224 50.5562 201.679C44.3303 201.911 42.3153 201.679 41.2044 196.77C38.3111 183.853 35.6502 170.937 32.7311 158.252C31.8527 153.344 30.0702 148.668 28.9594 143.786C23.8443 120.406 19.1685 97.0271 14.0534 73.6477C12.7101 66.9569 11.3926 60.4985 9.81673 54.2726C9.37756 52.9293 9.14506 51.6117 8.03422 50.2684C8.26672 56.2876 8.03423 61.8418 8.7059 67.6285C9.81674 77.4194 9.61007 87.0037 9.14506 96.7946C8.91256 107.49 8.7059 118.391 8.2409 129.086C7.36256 150.244 8.4734 170.058 8.4734 190.105C8.4734 191.449 8.91256 192.792 8.91256 194.109C8.91256 196.099 8.4734 198.346 6.89755 199.018C5.78671 199.922 4.44337 200.8 2.89336 199.922C1.78252 197.907 1.78252 196.796 1.78252 195.479C0.878346 181.451 0.87834 147.609 1.11084 130.249C1.11084 122.68 1.78251 115.343 2.45419 87.9337C2.89335 72.5627 1.11085 57.4243 0.671677 42.2858L0 24.0216C0 22.6782 0.878341 21.5674 2.45419 21.1282L6.45838 20.4565C7.13005 21.7999 8.00839 22.4716 8.00839 23.5824C12.4518 38.9533 17.3601 54.5309 20.021 70.341C22.2427 82.8186 24.9293 95.2704 28.2619 107.515C27.5902 104.622 42.522 165.848 43.1678 169.413L44.072 175.638L44.0978 175.613Z" fill="#833B13"/>
<path d="M117.568 175.174C105.323 172.72 94.1889 177.189 82.383 176.517L81.0397 182.071C80.1355 186.308 79.4897 190.752 78.818 194.988C78.1463 197.649 76.5963 198.553 74.1421 198.114C71.688 197.442 70.5771 196.125 71.0163 193.206L73.0313 182.743C74.1421 176.956 75.0463 170.937 76.1572 165.151L79.0505 147.558C81.0655 133.53 83.2872 119.503 85.2764 105.708C87.0589 92.1192 89.2806 78.7633 90.8306 65.4073C92.1739 54.9448 92.8456 44.2497 93.7239 33.7871C93.9564 29.3438 95.739 25.9854 99.5106 23.7637C101.061 22.6529 103.747 23.3246 104.419 25.1071C105.323 27.5612 106.434 30.2221 106.434 32.9088C105.995 39.1347 107.106 45.1539 107.984 51.3797C109.327 60.7315 109.999 70.3157 111.11 79.6674C112.892 94.8059 114.882 109.738 116.897 124.876L122.244 162.722C122.916 166.959 123.794 171.17 124.698 175.406C125.809 180.986 126.92 186.541 127.824 192.095C128.057 193.438 128.057 194.756 128.057 196.099C127.824 198.088 125.835 199.664 124.052 199.432C122.037 199.432 120.255 197.882 120.048 196.099C119.377 191.191 118.937 186.515 118.498 181.632C118.266 179.85 117.827 177.835 117.594 175.174M99.7948 49.5972C98.684 59.1815 98.0123 66.7507 96.9015 74.3199C96.0231 79.8999 94.6798 85.4541 93.7756 91.0083C92.2256 101.264 91.1147 111.494 89.7714 121.724C88.4281 131.076 86.6456 140.428 85.5347 149.78C84.863 155.334 82.6414 160.681 83.7522 166.933C85.3022 167.605 86.8781 168.483 88.6606 168.716C91.1147 168.948 93.5689 168.716 95.9973 168.483C102.456 167.811 108.682 167.14 115.372 166.468V162.696C114.262 154.688 112.918 146.654 111.807 138.645C110.257 127.072 108.475 115.498 106.899 104.132C105.788 95.4517 104.445 86.9783 103.567 78.2983C102.895 70.4965 102.456 62.7207 101.551 54.6864C101.551 53.5756 100.88 52.4648 99.769 49.5714" fill="#833B13"/>
<path d="M150.299 50.243C150.531 56.2622 150.299 61.8164 150.97 67.6031C152.081 77.394 151.849 86.9782 151.409 96.7691C151.177 107.464 151.177 118.366 150.066 129.061C148.051 149.108 149.162 168.922 149.627 188.943C149.627 190.286 150.066 191.604 150.066 192.947C150.066 194.962 149.394 196.951 148.051 197.856C146.501 198.734 144.925 198.295 143.375 198.734C142.936 196.745 142.471 195.608 142.471 194.291C142.238 180.263 142.238 165.796 142.238 151.769C142.238 147.764 142.471 143.321 143.143 139.524C144.254 129.733 144.486 120.148 144.693 110.358C144.925 102.788 145.364 95.4516 145.597 87.8824C145.829 72.5115 143.582 57.373 142.471 42.2346C142.032 36.2154 142.032 29.9895 141.799 23.9703C141.799 22.6269 142.704 21.5161 144.254 21.0769L148.929 20.4053C149.601 21.7486 150.479 22.3945 150.479 23.5311C154.923 38.9021 159.831 54.4797 162.492 70.2898C164.714 82.7674 167.4 95.2191 170.733 107.464C173.394 117.488 175.176 127.95 177.398 138.18L177.63 138.852C180.317 148.875 182.745 159.105 184.528 169.361C184.76 171.583 185.639 173.365 186.31 175.587C187.86 174.476 187.421 172.926 187.421 171.79C187.86 164.892 188.3 157.995 188.532 151.071C188.971 143.269 188.971 135.494 189.204 127.924C189.204 124.359 189.643 121.027 189.643 117.901C189.875 107.645 190.082 97.415 190.082 87.1591C190.082 77.8073 189.178 68.6881 189.41 59.543C189.643 48.6413 189.643 37.9462 188.971 27.0445C188.971 25.7011 188.739 24.1511 189.178 23.0403C189.617 22.1361 191.4 20.8186 192.071 20.5861C193.182 20.5861 194.526 21.6969 194.965 22.5753C195.636 23.6861 195.636 25.262 195.636 26.5795C195.636 34.1487 195.869 41.5112 195.636 49.0805C195.636 60.2147 194.965 71.3489 195.404 82.2507C196.515 96.2783 195.636 110.073 194.965 123.894V144.587C194.965 147.248 194.732 149.702 194.526 152.156L193.621 164.634C193.389 170.42 193.621 176.207 192.511 181.994C191.839 185.766 192.278 189.796 192.743 193.567C192.975 196.461 192.743 199.121 191.632 201.576C186.285 201.808 185.406 201.576 184.295 196.667C181.402 183.751 178.741 170.834 175.848 158.15C174.944 153.241 173.187 148.565 172.076 143.683C166.961 120.303 162.285 96.9241 157.17 73.5448C155.827 66.8539 154.509 60.3955 152.934 54.1697C152.494 52.8263 152.262 50.6046 150.273 50.1655" fill="#833B13"/>
<mask id="mask0_1720_666" style="mask-type:luminance" maskUnits="userSpaceOnUse" x="181" y="157" width="147" height="50">
<path d="M327.336 157.452H181.377V206.819H327.336V157.452Z" fill="white"/>
</mask>
<g mask="url(#mask0_1720_666)">
<path d="M194.423 206.819H194.139C193.183 206.819 192.15 206.69 189.85 206.535C186.802 206.328 183.366 202.918 181.377 199.922C181.377 197.235 182.1 194.187 183.159 191.293C183.573 193.127 183.96 194.962 184.374 196.796C185.329 200.981 186.104 201.756 189.644 201.756C190.264 201.756 190.935 201.756 191.736 201.704C192.847 199.25 193.08 196.589 192.847 193.696C192.408 189.898 191.943 185.894 192.615 182.122C192.795 181.218 192.925 180.314 193.054 179.41C202.457 177.886 198.401 165.253 208.425 159.156C210.207 158.071 211.783 157.529 213.359 157.503H213.617C218.81 157.58 224.39 163.212 239.58 172.9C257.276 174.811 297.111 178.376 314.368 183.595C318.088 184.731 321.885 185.687 324.96 188.193C327.853 190.544 328.292 193.076 325.476 196.072C321.007 200.826 315.375 202.143 309.227 202.143H309.072C295.768 202.092 270.27 200.412 250.792 200.412C244.152 200.412 238.237 200.619 233.741 201.136C222.013 202.505 210.362 204.572 198.685 206.354C196.412 206.716 195.379 206.845 194.423 206.845" fill="#E6DFD1"/>
<path d="M189.644 201.705C186.104 201.705 185.329 200.93 184.374 196.745C183.96 194.911 183.547 193.076 183.159 191.242C185.226 185.533 188.507 180.341 189.876 179.436C190.289 179.462 190.677 179.488 191.039 179.488C191.762 179.488 192.434 179.436 193.028 179.333C192.899 180.237 192.769 181.141 192.589 182.046C191.917 185.817 192.356 189.847 192.821 193.619C193.054 196.512 192.821 199.199 191.71 201.627C190.935 201.653 190.238 201.679 189.618 201.679" fill="#773816"/>
</g>
<path fill-rule="evenodd" clip-rule="evenodd" d="M195.638 203.1L195.56 202.893C195.353 202.144 195.147 201.369 194.94 200.62C194.733 199.896 194.475 199.199 194.191 198.501C193.958 197.985 193.7 197.494 193.416 197.029C192.538 195.686 191.375 194.704 189.877 194.11L189.489 193.955V193.877L189.67 193.774C190.523 193.257 191.272 192.637 191.995 191.965C192.641 191.345 193.235 190.674 193.803 190.002C194.966 188.607 196.103 187.212 197.239 185.817C198.867 183.828 200.52 181.865 202.148 179.875C204.163 177.421 206.126 174.941 208.038 172.409C210.027 169.774 211.939 167.062 213.747 164.272C215.839 161.043 217.751 157.71 219.456 154.274C221.6 149.986 223.434 145.594 224.959 141.048C225.915 138.206 226.741 135.338 227.465 132.419C227.878 130.714 228.24 129.009 228.575 127.304C228.782 126.245 228.963 125.212 229.118 124.152C229.247 123.3 229.376 122.447 229.505 121.621C229.583 121.001 229.686 120.381 229.738 119.761C229.79 119.244 229.841 118.753 229.919 118.237C229.945 117.927 229.996 117.591 230.022 117.281C230.048 116.997 230.074 116.712 230.1 116.428C230.125 116.041 230.151 115.653 230.203 115.292C230.229 114.852 230.28 114.439 230.306 114C230.332 113.612 230.358 113.225 230.384 112.812C230.41 112.166 230.435 111.52 230.487 110.874C230.487 110.409 230.487 110.512 230.745 110.177C231.262 109.531 231.546 108.782 231.675 107.955C231.753 107.361 231.753 106.767 231.675 106.147C231.624 105.501 231.495 104.855 231.391 104.235C231.34 103.951 231.288 103.641 231.262 103.331V102.814C231.314 102.401 231.34 101.987 231.391 101.574C231.417 101.29 231.443 101.006 231.469 100.722L231.598 100.541C231.856 100.463 232.089 100.36 232.347 100.282L232.476 100.231L232.528 100.153L232.476 99.8432C232.295 98.939 232.089 98.0348 231.908 97.1307L231.856 96.5107C231.908 96.0198 231.934 95.529 231.985 95.064C231.985 94.8056 232.037 94.5215 232.063 94.2631C232.115 93.669 232.166 93.0748 232.244 92.5065C232.295 91.9639 232.373 91.3956 232.425 90.8531C232.45 90.5431 232.476 90.2331 232.528 89.9231C232.58 89.5873 232.605 89.2256 232.631 88.8898C232.657 88.6314 232.683 88.3473 232.709 88.0889C232.76 87.4948 232.812 86.9006 232.89 86.2806C232.941 85.6089 233.019 84.9372 233.07 84.2656C233.096 83.9556 233.122 83.6197 233.148 83.2839C233.148 82.8706 233.2 82.4831 233.225 82.0697C233.251 81.1656 233.303 80.2614 233.329 79.3572C233.329 78.4789 233.329 77.5747 233.329 76.6964C233.303 75.0947 233.303 73.4672 233.303 71.8655C233.303 70.238 233.355 68.6105 233.406 67.0088C233.406 66.0271 233.458 65.0454 233.51 64.0638V63.8829C233.561 62.8496 233.587 61.8162 233.613 60.7829C233.639 59.8012 233.69 58.8196 233.716 57.8379V57.6571C233.82 54.5312 233.845 51.4054 233.794 48.2795C233.794 47.2462 233.742 46.2128 233.69 45.1795C233.665 44.5595 233.639 43.9395 233.587 43.3453C233.587 42.8803 233.51 42.3895 233.484 41.9245C233.484 41.6144 233.432 41.3303 233.406 41.0203C233.355 40.4519 233.303 39.8836 233.251 39.3153C233.174 38.6694 233.096 38.0236 232.993 37.3778C232.89 36.7061 232.812 36.0344 232.683 35.3627C232.605 34.9236 232.528 34.4844 232.45 34.0194L232.399 33.6836L232.45 33.5544L232.631 33.3994C233.174 32.9861 233.768 32.7019 234.44 32.5211C234.879 32.3919 235.344 32.2886 235.835 32.2369C236.429 32.1594 237.049 32.1077 237.669 32.0044C238.056 31.9527 238.47 31.9011 238.857 31.7977L238.96 31.7202H239.09L239.348 32.0044C240.381 33.0894 241.337 34.2519 242.215 35.4919C243.533 37.3261 244.67 39.2894 245.625 41.3303C246.555 43.2936 247.356 45.3345 248.054 47.427C248.751 49.5195 249.371 51.6379 249.94 53.782C250.534 56.0554 251.102 58.3287 251.645 60.6279C251.929 61.8421 252.213 63.0304 252.445 64.2446C252.626 65.0971 252.781 65.9496 252.962 66.8021C253.117 67.6288 253.272 68.4555 253.401 69.308C253.531 70.1088 253.66 70.9097 253.789 71.7105C253.892 72.4597 253.996 73.2347 254.099 73.9838C254.176 74.6813 254.254 75.3788 254.331 76.1022C254.357 76.3863 254.383 76.6447 254.409 76.9289C254.435 77.3164 254.486 77.7039 254.512 78.0914C254.538 78.5305 254.564 78.9955 254.616 79.4347C254.641 79.9772 254.693 80.5455 254.719 81.088C254.771 82.1989 254.822 83.3097 254.796 84.4206C254.796 85.4022 254.796 86.3839 254.796 87.3656C254.796 87.7531 254.771 88.1406 254.796 88.5023C254.848 89.0964 254.9 89.7164 254.951 90.3106C255.029 90.9306 255.106 91.5506 255.21 92.1706C255.313 92.7906 255.416 93.4106 255.52 94.0048C255.675 94.8056 255.83 95.6065 256.011 96.4073C256.114 96.924 256.191 97.4407 256.191 97.9573V98.0607L256.243 98.2673V101.187L256.191 101.342V101.729C256.191 102.117 256.14 102.504 256.088 102.892C256.011 103.486 255.933 104.054 255.856 104.648C255.726 105.423 255.623 106.172 255.468 106.947C255.313 107.826 255.132 108.73 254.951 109.608V109.737V109.892L255.261 110.306C255.442 110.564 255.442 110.564 255.391 110.9L255.339 111.184C255.313 111.468 255.261 111.778 255.236 112.088C255.21 112.398 255.184 112.708 255.158 113.018C255.132 113.406 255.081 113.793 255.055 114.181C255.003 114.775 254.951 115.369 254.9 115.937C254.848 116.454 254.771 116.971 254.719 117.487C254.641 118.133 254.564 118.779 254.486 119.425C254.383 120.148 254.28 120.897 254.176 121.621C254.047 122.628 253.866 123.61 253.711 124.592C253.505 125.832 253.246 127.072 253.014 128.312C252.652 130.172 252.213 132.032 251.774 133.866C250.999 137.018 250.12 140.143 249.139 143.243C247.382 148.849 245.341 154.326 243.068 159.725L242.81 160.164C242.112 161.043 241.415 161.973 240.769 162.877C239.658 164.427 238.573 166.029 237.54 167.656C236.506 169.258 235.447 170.859 234.414 172.461C233.355 174.089 232.244 175.69 231.081 177.24C229.764 179.023 228.343 180.728 226.819 182.355C225.579 183.647 224.365 184.939 223.124 186.205C221.419 187.935 219.663 189.615 217.829 191.216C216.149 192.689 214.419 194.11 212.61 195.401C210.389 197.003 208.064 198.424 205.609 199.638C203.517 200.671 201.347 201.524 199.125 202.17C198.169 202.454 197.213 202.686 196.232 202.919L196.051 202.996H195.844L195.638 203.1Z" fill="#F8AC36"/>
<path fill-rule="evenodd" clip-rule="evenodd" d="M216.975 8.57331C217.388 3.43245 219.817 0.332429 225.319 0.280762C225.474 0.642431 226.508 1.0041 226.895 1.0816C228.316 2.34744 229.324 4.72413 229.84 6.48081C231.235 9.08999 231.313 8.49582 230.822 12.965C231.132 14.3342 231.054 15.0317 231.364 16.4009C229.065 16.3492 226.663 15.135 224.544 16.2975C221.883 17.77 220.23 16.5559 218.499 14.9025C217.388 13.2233 217.001 11.3375 217.027 9.34832C217.182 9.08998 217.182 8.85749 217.001 8.59915" fill="#422415"/>
<path fill-rule="evenodd" clip-rule="evenodd" d="M182.333 193.206C184.787 193.464 187.215 193.723 189.67 193.981C194.036 195.454 194.862 199.354 195.87 203.126C194.242 204.96 192.098 205.89 189.799 206.536L189.85 206.639C189.334 206.433 188.791 206.226 188.275 206.019C181.196 202.842 180.24 200.827 182.333 193.232" fill="#482614"/>
<path fill-rule="evenodd" clip-rule="evenodd" d="M232.45 34.0969C230.331 35.1302 228.213 36.1894 226.095 37.2228C225.113 33.2186 224.105 29.1885 223.124 25.1843C226.275 23.1435 229.84 22.7043 233.483 22.5493C235.369 25.7785 237.255 29.0077 239.115 32.2369C236.867 32.7794 234.361 32.3919 232.424 34.0711" fill="#F2921A"/>
<path fill-rule="evenodd" clip-rule="evenodd" d="M233.483 22.549C229.84 22.704 226.275 23.1432 223.123 25.184C222.013 21.5415 219.119 18.7257 218.473 14.8765C220.204 16.5298 221.883 17.744 224.518 16.2715C226.637 15.109 229.039 16.2973 231.338 16.3748C232.062 18.4415 232.759 20.4823 233.483 22.549Z" fill="#833B13"/>
<path fill-rule="evenodd" clip-rule="evenodd" d="M188.274 205.992C188.791 206.199 189.334 206.406 189.876 206.612C189.334 206.406 188.817 206.199 188.274 205.992Z" fill="#DF1F2B"/>
<path fill-rule="evenodd" clip-rule="evenodd" d="M189.23 194.007H189.178L189.127 193.955C188.843 193.929 188.558 193.903 188.274 193.877H188.042L187.913 193.826C187.628 193.8 187.344 193.774 187.06 193.748H186.802L186.518 193.697L186.13 193.645H186.053C185.768 193.619 185.458 193.593 185.148 193.542H184.916L184.632 193.49L184.244 193.438H183.986L183.624 193.387H183.34L183.03 193.335L182.513 193.283L182.358 193.232L182.307 193.18V192.999C182.513 192.172 182.72 191.32 182.927 190.493C183.547 188.091 184.348 185.74 185.226 183.415C185.923 181.581 186.724 179.746 187.525 177.938C188.274 176.311 189.049 174.709 189.824 173.107C190.78 171.196 191.736 169.31 192.718 167.424C193.777 165.383 194.836 163.342 195.869 161.276C197.626 157.788 199.331 154.3 200.958 150.761C202.224 148.023 203.438 145.285 204.601 142.52C205.893 139.472 207.107 136.372 208.269 133.272C209.328 130.404 210.31 127.511 211.214 124.592C211.834 122.603 212.403 120.588 212.945 118.573C213.307 117.255 213.617 115.938 213.953 114.62C214.185 113.664 214.392 112.734 214.599 111.779C214.754 111.055 214.909 110.332 215.038 109.608C215.167 108.988 215.27 108.368 215.399 107.748C215.503 107.258 215.58 106.767 215.658 106.302C215.709 105.914 215.787 105.553 215.839 105.165C215.916 104.7 215.994 104.209 216.071 103.744C216.123 103.383 216.174 103.021 216.226 102.659L216.329 101.988C216.355 101.755 216.381 101.523 216.407 101.29C216.433 101.058 216.459 100.799 216.51 100.567V100.438C216.562 100.102 216.614 99.7659 216.639 99.4559C216.665 99.1718 216.691 98.9134 216.743 98.6293V98.3968L216.794 98.1126V97.7509L216.846 97.6992C216.872 97.3892 216.898 97.0792 216.924 96.7692C216.949 96.3817 217.001 96.0459 217.027 95.6842V95.6326C217.053 95.2709 217.079 94.8834 217.13 94.5217V94.0826L217.182 93.8242C217.182 93.5659 217.208 93.2817 217.234 93.0234V92.7651V92.5325C217.156 92.1192 217.104 91.68 217.053 91.2667C217.001 90.905 216.949 90.5434 216.898 90.1817L216.82 89.7167V89.3292L216.846 89.0192C216.872 88.7609 216.898 88.4767 216.924 88.2184C216.949 87.96 217.001 87.6758 217.027 87.4175L217.104 86.8492C217.13 86.5908 217.156 86.3325 217.182 86.0742L217.259 85.5058C217.311 85.1442 217.389 84.7825 217.44 84.4208C217.492 84.085 217.544 83.775 217.595 83.4392L217.673 83C217.75 82.4833 217.828 81.9925 217.931 81.4758C217.983 81.14 218.034 80.83 218.086 80.4941C218.138 80.1841 218.189 79.8741 218.241 79.5383C218.293 79.2283 218.344 78.9183 218.396 78.5825L218.474 78.0658C218.525 77.7041 218.603 77.3166 218.654 76.9549C218.706 76.6449 218.758 76.3349 218.809 75.9991C218.861 75.6891 218.913 75.3791 218.964 75.0433L219.042 74.5266L219.223 73.4158C219.274 73.1058 219.326 72.7957 219.378 72.4599C219.429 72.1241 219.481 71.8141 219.533 71.4782C219.584 71.1424 219.636 70.8324 219.688 70.4966C219.739 70.1866 219.791 69.8766 219.843 69.5407L219.92 69.0241C219.972 68.6624 220.049 68.2749 220.101 67.9132C220.153 67.6032 220.204 67.2932 220.256 66.9574C220.308 66.6474 220.359 66.3115 220.411 66.0015L220.489 65.5365C220.566 65.0199 220.669 64.5032 220.747 63.9865C220.824 63.5215 220.902 63.0824 220.979 62.6174C221.057 62.1523 221.109 61.7132 221.186 61.2482C221.264 60.7315 221.367 60.2148 221.444 59.6982L221.703 58.1482C221.78 57.6315 221.884 57.1406 221.961 56.624C222.013 56.314 222.064 56.004 222.116 55.6681C222.168 55.3581 222.219 55.0223 222.271 54.7123C222.323 54.4023 222.374 54.0923 222.426 53.7565C222.478 53.4465 222.529 53.1365 222.581 52.8006C222.633 52.4906 222.684 52.1806 222.736 51.8448L222.814 51.3798C222.891 50.8889 222.969 50.3981 223.072 49.8814C223.124 49.5714 223.175 49.2356 223.227 48.9256C223.279 48.6156 223.33 48.3056 223.382 47.9697C223.434 47.6597 223.485 47.3497 223.537 47.0139C223.589 46.7039 223.64 46.3939 223.692 46.0581C223.744 45.7481 223.795 45.4381 223.847 45.1022C223.899 44.7922 223.95 44.4822 224.028 44.1464C224.079 43.8106 224.157 43.4747 224.234 43.1389C224.364 42.5705 224.519 42.0022 224.674 41.4339C224.88 40.633 225.139 39.858 225.371 39.0572C225.552 38.4372 225.759 37.8172 225.939 37.1713C226.043 36.8613 225.965 36.913 226.275 36.7838C228.239 35.828 230.202 34.8463 232.139 33.8905L232.32 33.813H232.398L232.449 34.123C232.501 34.4072 232.553 34.6913 232.604 34.9755C232.656 35.2855 232.708 35.5955 232.759 35.9313L232.837 36.3963C232.889 36.758 232.94 37.1197 232.992 37.4814C233.018 37.7139 233.069 37.9463 233.095 38.1788C233.121 38.4113 233.147 38.6697 233.199 38.9022C233.224 39.1864 233.25 39.4447 233.302 39.7289V39.9872L233.354 40.3489V40.4005C233.405 40.7105 233.431 41.0464 233.457 41.3564C233.509 41.7697 233.509 42.1572 233.56 42.5447V42.5964C233.586 43.0356 233.612 43.4747 233.638 43.9139V44.4822L233.689 44.9731V45.6189V45.9806V46.2131L233.741 46.3939V56.8565L233.689 57.0631C233.689 57.2956 233.689 57.5281 233.689 57.7607C233.689 58.1482 233.689 58.5357 233.689 58.9232C233.689 59.1557 233.689 59.3882 233.689 59.6207V60.7315C233.638 60.9898 233.638 61.2482 233.638 61.5065C233.638 61.8682 233.612 62.2298 233.612 62.5915C233.612 62.8498 233.612 63.1082 233.586 63.3665C233.586 63.7282 233.56 64.064 233.56 64.4257C233.56 64.7099 233.56 64.994 233.534 65.304C233.534 65.6915 233.509 66.1049 233.509 66.4924C233.509 66.8282 233.509 67.164 233.483 67.474C233.483 67.8615 233.483 68.2491 233.457 68.6366C233.457 69.2307 233.457 69.8249 233.431 70.3932C233.431 70.8841 233.431 71.4007 233.431 71.8916C233.431 72.7441 233.431 73.5966 233.431 74.4491C233.431 74.9399 233.431 75.4049 233.431 75.8958C233.457 76.9291 233.457 77.9625 233.457 78.9958C233.457 79.2541 233.457 79.5383 233.457 79.7966C233.457 80.1583 233.457 80.4941 233.431 80.8558V81.4241L233.379 82.0958V82.5867L233.328 83.1033C233.302 83.5167 233.276 83.9042 233.25 84.3175L233.199 84.9633V85.1958L233.147 85.5833V85.9967L233.095 86.2808V86.6942L233.044 86.9267C233.018 87.2367 232.992 87.5725 232.966 87.8825V87.96L232.914 88.3475V88.58L232.837 89.0192V89.2517L232.785 89.6134V89.8459L232.708 90.285V90.5175L232.656 90.8275V91.1892L232.604 91.4734V91.7317L232.527 92.145V92.4034L232.475 92.7134V93.0751L232.424 93.3592V93.6175L232.346 94.1342V94.3926L232.294 94.6767L232.243 95.1159V95.3742C232.191 95.7359 232.139 96.0976 232.139 96.4593V96.5109V97.0276V97.1826C232.243 97.5184 232.32 97.8801 232.398 98.2159C232.527 98.7843 232.656 99.3784 232.759 99.9468V100.128L232.785 100.205V100.257L232.553 100.334L231.855 100.593L231.752 100.696L231.7 101.213V101.471L231.623 101.91V102.143L231.571 102.504V102.814L231.519 103.047V103.331L231.597 103.796C231.649 104.106 231.7 104.416 231.752 104.7L231.855 105.268L231.933 105.863V106.173L232.01 106.586V106.948C232.036 107.206 232.01 107.49 231.984 107.748C231.984 108.058 231.907 108.343 231.804 108.627C231.649 109.169 231.39 109.686 231.029 110.125L230.822 110.384L230.77 110.513V110.823L230.719 111.391V111.908L230.667 112.528C230.641 112.993 230.615 113.458 230.589 113.897V113.974C230.538 114.388 230.512 114.827 230.486 115.266C230.46 115.628 230.434 115.964 230.409 116.325L230.357 116.894V117.074L230.305 117.436V117.694L230.228 118.108V118.34L230.176 118.624C230.15 118.883 230.124 119.167 230.099 119.425L230.047 119.813C230.021 120.045 229.995 120.278 229.969 120.51C229.944 120.743 229.892 121.001 229.866 121.234L229.763 121.905L229.685 122.37L229.582 122.99L229.504 123.584C229.453 123.92 229.401 124.23 229.349 124.566C229.298 124.876 229.246 125.186 229.194 125.522C229.091 126.039 229.014 126.581 228.91 127.098C228.781 127.744 228.652 128.389 228.523 129.009C228.342 129.888 228.161 130.74 227.954 131.619C227.67 132.884 227.334 134.15 226.999 135.416C226.456 137.38 225.862 139.343 225.19 141.28C223.976 144.871 222.555 148.359 220.954 151.795C218.964 156.005 216.717 160.087 214.211 164.014C212.739 166.339 211.163 168.586 209.535 170.808C207.882 173.081 206.151 175.277 204.394 177.473C202.793 179.462 201.165 181.451 199.538 183.415C197.807 185.482 196.102 187.574 194.397 189.667C194.061 190.08 193.725 190.467 193.363 190.855C192.95 191.32 192.511 191.785 192.046 192.198C191.426 192.767 190.728 193.309 190.005 193.748L189.876 193.852H189.359L189.23 194.007Z" fill="#FFD802"/>
<path d="M264.664 160.914C264.431 156.677 264.225 152.673 264.225 148.436C264.225 137.069 264.225 125.935 264.457 115.033C264.69 105.914 264.457 97.0015 265.129 88.089C265.568 79.6156 265.361 71.4005 265.568 62.9271C265.8 58.2513 265.335 53.1362 265.335 47.7887C265.568 44.8953 266.24 42.002 266.446 38.8761C266.885 31.3069 271.122 26.8636 276.237 23.066C281.352 19.501 287.371 18.1577 293.83 19.501C296.284 20.1727 298.506 21.516 300.495 23.9444C303.182 27.7419 306.282 31.2811 306.953 36.6286C307.625 41.537 307.625 45.9804 307.625 50.8887C307.857 53.3429 306.514 54.4538 304.499 54.6863C302.484 54.9188 300.727 53.5754 300.495 51.3537C300.262 48.2279 300.262 45.567 300.262 42.8803C300.03 37.3261 298.041 33.0894 294.036 29.5244C289.8 26.6311 285.796 26.3986 281.352 29.2919C280.009 30.1961 278.898 31.3069 277.348 32.6244C275.566 34.1744 274.455 36.1895 274.015 38.8503C272.905 44.8695 272.233 51.3279 272.672 57.7863C273.344 64.6838 272.44 72.253 272.233 79.3831C272 87.624 271.794 95.6324 271.329 103.641C269.779 118.547 271.329 133.478 271.329 148.178C271.329 154.636 270.89 160.862 270.89 167.32C270.89 170.653 271.122 173.546 271.561 176.233C272.233 185.352 277.116 190.493 284.039 192.921C286.493 193.593 289.154 194.265 291.841 193.826C296.516 192.921 298.738 190.054 300.081 185.378C300.753 182.252 300.986 178.92 301.192 175.148C301.864 170.24 302.097 164.892 302.536 159.338C302.975 156.444 304.757 154.894 306.772 155.334C309.433 155.566 311.887 158.459 310.777 161.12C308.116 167.346 309.227 174.244 307.651 180.702C306.979 183.156 306.979 185.61 306.307 188.039C304.318 196.28 298.738 200.723 291.401 201.627C283.161 202.506 276.496 198.734 270.476 192.508C266.679 188.736 264.69 183.595 264.69 177.809C264.922 172.255 264.457 166.442 264.25 160.888H264.69L264.664 160.914Z" fill="#833B13"/>
<path d="M370.865 175.174C358.62 172.72 347.486 177.189 335.68 176.517L334.337 182.071C333.433 186.308 332.787 190.752 332.115 194.988C331.443 197.649 329.893 198.553 327.439 198.114C324.985 197.442 323.874 196.125 324.313 193.206L326.303 182.743C327.413 176.956 328.318 170.937 329.428 165.151L332.322 147.558C334.337 133.53 336.558 119.503 338.548 105.708C340.33 92.1192 342.552 78.7633 344.102 65.4073C345.445 54.9448 346.117 44.2497 346.995 33.7871C347.228 29.3438 349.01 25.9854 352.782 23.7637C354.332 22.6529 357.019 23.3246 357.69 25.1071C358.594 27.5612 359.705 30.2221 359.705 32.9088C359.266 39.1347 360.377 45.1539 361.255 51.3797C362.599 60.7315 363.27 70.3157 364.381 79.6674C366.164 94.8059 368.153 109.738 370.168 124.876L375.515 162.722C376.187 166.959 377.065 171.17 377.97 175.406C379.08 180.986 380.191 186.541 381.095 192.095C381.328 193.438 381.328 194.756 381.328 196.099C381.095 198.088 379.106 199.664 377.324 199.432C375.309 199.432 373.526 197.882 373.32 196.099C372.648 191.191 372.209 186.515 371.77 181.632C371.537 179.85 371.098 177.835 370.865 175.174ZM353.066 49.5972C351.955 59.1815 351.284 66.7507 350.173 74.3199C349.294 79.8999 347.951 85.4541 347.047 91.0083C345.497 101.264 344.386 111.494 343.043 121.724C341.699 131.076 339.917 140.428 338.806 149.78C338.134 155.334 335.913 160.681 337.023 166.933C338.573 167.605 340.149 168.483 341.932 168.716C344.386 168.948 346.84 168.716 349.294 168.483C355.753 167.811 361.979 167.14 368.67 166.468V162.696C367.559 154.688 366.215 146.654 365.104 138.645C363.554 127.072 361.772 115.498 360.196 104.132C359.085 95.4517 357.742 86.9783 356.864 78.2983C356.192 70.4965 355.753 62.7207 354.849 54.6864C354.849 53.5756 354.177 52.4648 353.066 49.5714" fill="#833B13"/>
<path d="M383.731 49.5201C376.471 49.5201 370.581 43.6818 370.53 36.3967C370.478 29.1117 376.368 23.17 383.679 23.1441C390.964 23.1183 396.906 29.06 396.88 36.345C396.88 43.6301 390.99 49.4943 383.705 49.5201M383.705 47.376C389.801 47.376 394.736 42.4418 394.736 36.3709C394.736 30.2483 389.801 25.2883 383.679 25.2883C377.582 25.2883 372.648 30.2225 372.648 36.2934C372.648 42.4159 377.582 47.376 383.705 47.376Z" fill="#833B13"/>
<path d="M378.383 42.699V29.6014L378.512 29.5239C381.044 29.5498 383.575 29.5239 386.081 29.6531C387.915 29.7564 389.026 31.0481 389.181 32.8565C389.336 34.6906 388.406 36.1631 386.727 36.7315C386.494 36.809 386.262 36.8606 385.952 36.964C388.019 38.4107 388.845 40.7098 390.318 42.7507C389.181 42.7507 388.199 42.7507 387.218 42.7507L386.753 42.3373C385.978 41.2265 385.177 40.1157 384.479 38.9273C383.704 37.6356 382.594 37.0931 381.044 37.2998V42.7249H378.383V42.699ZM381.044 34.9748C382.439 34.9748 383.756 35.0265 385.048 34.9748C385.823 34.9231 386.314 34.3031 386.339 33.5023C386.365 32.7014 385.978 31.9781 385.28 31.9264C383.885 31.8231 382.464 31.9006 381.044 31.9006V35.0006V34.9748Z" fill="#833B13"/>
</svg>
